HIERARCHY
ROOT Hips
{
 OFFSET 0.000000 0.000000 0.000000
 CHANNELS 6 Xposition Yposition Zposition Yrotation Xrotation Zrotation
 JOINT Chest
 {
  OFFSET 0.000000 9.581000 -0.001100
  CHANNELS 3 Yrotation Xrotation Zrotation
  JOINT Chest2
  {
   OFFSET 0.000000 9.561100 0.002200
   CHANNELS 3 Yrotation Xrotation Zrotation
   JOINT Chest3
   {
    OFFSET 0.000000 9.521100 0.000000
    CHANNELS 3 Yrotation Xrotation Zrotation
    JOINT Chest4
    {
     OFFSET 0.000000 9.511400 0.000000
     CHANNELS 3 Yrotation Xrotation Zrotation
     JOINT Neck
     {
      OFFSET 0.000000 14.375100 0.000000
      CHANNELS 3 Yrotation Xrotation Zrotation
      JOINT Head
      {
       OFFSET 0.000000 8.901200 0.004600
       CHANNELS 3 Yrotation Xrotation Zrotation
       End Site
       {
        OFFSET 0.000000 16.962200 0.002400
       }
      }
     }
     JOINT RightCollar
     {
      OFFSET -2.920100 9.518800 0.000000
      CHANNELS 3 Yrotation Xrotation Zrotation
      JOINT RightShoulder
      {
       OFFSET -13.664500 0.000000 0.000000
       CHANNELS 3 Yrotation Xrotation Zrotation
       JOINT RightElbow
       {
        OFFSET 0.000000 -29.999200 0.000000
        CHANNELS 3 Yrotation Xrotation Zrotation
        JOINT RightWrist
        {
         OFFSET 0.000000 -24.253600 0.000000
         CHANNELS 3 Yrotation Xrotation Zrotation
         End Site
         {
          OFFSET 0.000000 -17.918900 0.000000
         }
        }
       }
      }
     }
     JOINT LeftCollar
     {
      OFFSET 2.920100 9.518800 0.000000
      CHANNELS 3 Yrotation Xrotation Zrotation
      JOINT LeftShoulder
      {
       OFFSET 13.664500 0.000000 0.000000
       CHANNELS 3 Yrotation Xrotation Zrotation
       JOINT LeftElbow
       {
        OFFSET 0.000000 -29.999200 0.000000
        CHANNELS 3 Yrotation Xrotation Zrotation
        JOINT LeftWrist
        {
         OFFSET 0.000000 -24.253600 0.000000
         CHANNELS 3 Yrotation Xrotation Zrotation
         End Site
         {
          OFFSET 0.000000 -17.918900 0.000000
         }
        }
       }
      }
     }
    }
   }
  }
 }
 JOINT RightHip
 {
  OFFSET -7.797300 0.005300 0.000500
  CHANNELS 3 Yrotation Xrotation Zrotation
  JOINT RightKnee
  {
   OFFSET 0.000000 -40.663400 -0.000500
   CHANNELS 3 Yrotation Xrotation Zrotation
   JOINT RightAnkle
   {
    OFFSET 0.000000 -39.523700 -0.000900
    CHANNELS 3 Yrotation Xrotation Zrotation
    JOINT RightToe
    {
     OFFSET 0.000000 -6.418000 14.485300
     CHANNELS 3 Yrotation Xrotation Zrotation
     End Site
     {
      OFFSET 0.000000 -1.465200 6.326400
     }
    }
   }
  }
 }
 JOINT LeftHip
 {
  OFFSET 7.797300 0.005300 0.000500
  CHANNELS 3 Yrotation Xrotation Zrotation
  JOINT LeftKnee
  {
   OFFSET 0.000000 -40.663400 -0.000500
   CHANNELS 3 Yrotation Xrotation Zrotation
   JOINT LeftAnkle
   {
    OFFSET 0.000000 -39.523700 -0.000900
    CHANNELS 3 Yrotation Xrotation Zrotation
    JOINT LeftToe
    {
     OFFSET 0.000000 -6.418000 14.485300
     CHANNELS 3 Yrotation Xrotation Zrotation
     End Site
     {
      OFFSET 0.000000 -1.465200 6.326400
     }
    }
   }
  }
 }
}
MOTION
Frames: 9
Frame Time: 0.008333
-13.778541 126.915070 26.790472 -166.860170 -49.469331 -2.615238 -3.283264 26.636168 -0.009082 -0.548476 4.539968 0.108120 -0.871681 7.197263 0.151870 -2.652433 21.779425 0.114040 7.284685 19.151026 -0.687570 8.081832 -5.174722 -2.420856 1.195826 4.038709 1.044914 3.741464 -8.007663 -12.015347 -76.686859 -54.257361 131.061180 0.910610 12.157776 5.438258 -8.975882 -0.145055 -1.358554 -7.280184 -10.272143 13.637047 55.800845 -46.817864 -108.525679 -2.199760 3.435871 -10.404074 -5.967676 -23.120739 -6.924263 -3.993951 78.583018 -3.609905 6.839450 -15.446853 2.467781 -0.000574 -0.001454 -0.000254 5.925166 6.123983 1.083311 128.177139 65.199466 147.723020 6.370359 12.140814 -0.148956 0.000457 0.004169 0.000203
-13.778567 126.915172 26.790636 -166.859058 -49.468882 -2.616089 -3.274099 26.641143 -0.008868 -0.554840 4.536215 0.111927 -0.863449 7.203781 0.149498 -2.645826 21.782120 0.113938 7.249246 19.118649 -0.686728 8.024911 -5.234359 -2.405344 1.192956 4.005013 1.034966 3.716992 -7.981668 -12.011796 -76.646744 -54.251037 131.035413 0.920303 12.173465 5.437489 -8.999725 -0.161454 -1.343818 -7.283468 -10.261269 13.635100 55.811416 -46.820533 -108.525107 -2.188538 3.434962 -10.368037 -5.968900 -23.119469 -6.923034 -3.994041 78.585049 -3.612251 6.854631 -15.441934 2.462245 0.000386 -0.000874 0.000171 5.923676 6.123093 1.082821 128.176100 65.199109 147.722322 6.364470 12.133306 -0.134424 0.000820 0.002905 0.000364
-13.778612 126.915302 26.790761 -166.859194 -49.468959 -2.615843 -3.266402 26.646952 -0.010831 -0.549732 4.538215 0.112061 -0.860693 7.207222 0.149537 -2.636466 21.787009 0.115133 7.207187 19.080219 -0.684349 7.983741 -5.280808 -2.394386 1.188593 3.966848 1.031350 3.685977 -7.940946 -12.020107 -76.631844 -54.235609 131.037090 0.931880 12.169080 5.444075 -9.026953 -0.179978 -1.326712 -7.284424 -10.249402 13.635875 55.813836 -46.823030 -108.522463 -2.170925 3.421675 -10.302230 -5.969446 -23.116870 -6.920797 -4.003086 78.586462 -3.620868 6.856352 -15.442414 2.459006 0.000252 -0.001275 0.000112 5.923373 6.122852 1.082696 128.173174 65.199542 147.719513 6.358629 12.126760 -0.121767 0.000558 0.001929 0.000247
-13.778629 126.915265 26.790958 -166.855457 -49.467948 -2.618388 -3.265610 26.650594 -0.013731 -0.539570 4.551498 0.104396 -0.862769 7.199933 0.155574 -2.631068 21.791186 0.113275 7.172178 19.042558 -0.683093 7.943854 -5.330958 -2.385519 1.186713 3.941195 1.038179 3.675387 -7.927455 -12.014512 -76.599131 -54.242132 130.998850 0.941210 12.168936 5.452700 -9.047737 -0.196389 -1.304515 -7.284254 -10.245220 13.632817 55.814908 -46.819436 -108.514428 -2.161807 3.415206 -10.266006 -5.972973 -23.115414 -6.917469 -4.014201 78.588114 -3.631178 6.851461 -15.444153 2.455668 -0.000139 -0.001552 -0.000062 5.919105 6.120964 1.081714 128.173156 65.197975 147.719290 6.346395 12.112506 -0.090938 0.002434 -0.001015 0.001079
-13.778288 126.915446 26.790883 -166.862304 -49.468465 -2.615163 -3.259566 26.652674 -0.012751 -0.530547 4.562856 0.099780 -0.867237 7.200350 0.155106 -2.606918 21.819854 0.098919 7.132667 18.974947 -0.668365 7.902582 -5.386301 -2.375079 1.174173 3.887289 1.063110 3.657017 -7.898232 -12.023117 -76.610277 -54.234464 131.017342 0.948005 12.253820 5.412456 -9.082907 -0.236963 -1.271614 -7.279725 -10.223916 13.642816 55.828256 -46.823679 -108.529993 -2.153669 3.409908 -10.226124 -5.968498 -23.114544 -6.907606 -4.049957 78.592856 -3.672341 6.848900 -15.444615 2.460360 -0.000332 -0.001449 -0.000147 5.921462 6.121790 1.082519 128.166574 65.194933 147.712584 6.345521 12.113395 -0.106988 0.001690 0.002191 0.000749
-13.778620 126.915231 26.791199 -166.860077 -49.465574 -2.614081 -3.252616 26.660915 -0.016595 -0.532617 4.558950 0.102235 -0.861852 7.210831 0.150847 -2.591164 21.828269 0.097191 7.105960 18.935452 -0.657025 7.849495 -5.459349 -2.365509 1.173290 3.838344 1.070287 3.622522 -7.826711 -12.027317 -76.668947 -54.231347 131.092178 0.953020 12.267431 5.408852 -9.116350 -0.257391 -1.250213 -7.275327 -10.217419 13.647368 55.826732 -46.826120 -108.526171 -2.153409 3.402396 -10.208559 -5.970315 -23.116732 -6.907766 -4.059069 78.596904 -3.684454 6.851503 -15.452263 2.459643 -0.000144 -0.002205 -0.000064 5.915847 6.121040 1.075211 128.169617 65.192410 147.708914 6.334142 12.086838 -0.050243 0.001520 -0.002500 0.000673
-13.778465 126.914947 26.791449 -166.861475 -49.461721 -2.612808 -3.236939 26.669413 -0.015246 -0.537871 4.554139 0.104773 -0.834130 7.246635 0.137642 -2.590508 21.816414 0.109650 7.062948 18.871961 -0.652864 7.808403 -5.521889 -2.344760 1.186240 3.766319 1.070285 3.578044 -7.773746 -12.004456 -76.664161 -54.247180 131.089644 0.954945 12.269970 5.406795 -9.148759 -0.280281 -1.223636 -7.271945 -10.216296 13.648735 55.829494 -46.820639 -108.520563 -2.156074 3.408318 -10.166396 -5.968412 -23.119200 -6.906863 -4.066758 78.597179 -3.691226 6.854130 -15.456870 2.458492 0.000200 -0.002024 0.000088 5.912615 6.117826 1.070663 128.179549 65.192142 147.717262 6.335556 12.081846 -0.047071 0.002666 -0.002384 0.001181
-13.778250 126.915062 26.791321 -166.866725 -49.460592 -2.608982 -3.221568 26.680826 -0.015547 -0.535358 4.558147 0.104354 -0.826701 7.257362 0.136646 -2.576959 21.824896 0.110585 7.018355 18.803388 -0.645275 7.765222 -5.589643 -2.322453 1.167278 3.725415 1.089091 3.567941 -7.753281 -12.005125 -76.668713 -54.260927 131.084974 0.965097 12.300365 5.406564 -9.180837 -0.307228 -1.198103 -7.267344 -10.218779 13.651974 55.823147 -46.812050 -108.514719 -2.168561 3.411720 -10.111673 -5.964412 -23.118798 -6.905213 -4.079284 78.595916 -3.702919 6.853760 -15.461103 2.457911 0.000327 -0.001534 0.000145 5.915389 6.116257 1.071638 128.185236 65.192613 147.718271 6.336054 12.076208 -0.033116 0.001762 -0.003615 0.000780
-13.777538 126.915058 26.791179 -166.869893 -49.458081 -2.609003 -3.184297 26.715043 -0.008848 -0.547546 4.544499 0.107598 -0.823308 7.264266 0.140088 -2.565068 21.834250 0.110448 6.977603 18.736588 -0.634174 7.715498 -5.668432 -2.300639 1.160866 3.665996 1.097677 3.525685 -7.672972 -12.008206 -76.702113 -54.291988 131.119905 0.978140 12.286356 5.422006 -9.209091 -0.339970 -1.172487 -7.268873 -10.207040 13.653197 55.833667 -46.819261 -108.530944 -2.177864 3.406870 -10.055704 -5.963593 -23.118111 -6.901496 -4.092286 78.591648 -3.712019 6.848052 -15.468580 2.453247 -0.000519 -0.001308 -0.000230 5.917373 6.111490 1.074884 128.182256 65.195701 147.715518 6.355448 12.105375 -0.096941 -0.001916 0.002058 -0.000849
